<svg width="134" height="269" viewBox="0 0 134 269" fill="none" xmlns="http://www.w3.org/2000/svg">
<path d="M81.9187 5.63245C77.1316 5.91404 70.542 10.6212 67.4037 14.2269C63.4474 18.7724 59.2326 23.1521 58.0453 29.3149C57.3355 32.9988 56.1902 37.9128 57.1858 41.7292C57.9549 44.6773 61.2042 48.7852 63.6316 50.6578C67.7822 53.8597 69.094 59.3035 67.4037 64.5045C66.1763 68.2809 62.8751 70.916 60.5281 73.9584C58.1945 76.9834 53.816 79.0386 50.358 80.4997C44.272 83.0712 41.5248 87.7154 41.5248 94.1553C41.5248 95.4723 41.4663 96.8031 41.5248 98.1183C41.5919 99.6292 42.7828 100.641 43.3392 101.986C44.2117 104.094 46.6147 105.104 47.4454 107.143C54.297 123.96 25.6693 128.745 18.9882 139.037C16.6358 142.662 10.1935 153.654 14.7865 158.089C19.9858 163.109 29.0628 163.901 29.0628 172.46C29.0628 179.07 21.4819 182.599 16.5054 185.352C14.0171 186.729 9.96756 187.784 8.00642 189.745C6.54164 191.21 6.81724 194.461 6.0488 196.238C5.12078 198.384 5.85781 202.525 5.85781 204.833C5.85781 207.04 5.3795 209.899 6.71726 211.804C7.48021 212.891 7.86116 213.533 8.43615 214.716C10.0753 218.091 13.259 220.112 15.5504 222.977C20.049 228.6 26.3645 230.38 32.1186 234.579C37.6958 238.649 43.2435 241.401 49.5463 244.224C52.5553 245.572 55.6139 246.877 58.7137 247.996C62.6276 249.409 65.9029 251.543 69.982 252.58C74.287 253.674 78.2265 255.882 82.4917 257.116C90.2764 259.368 98.3139 260.986 106.317 262.225C113.581 263.349 120.994 263.466 128.329 263.466" stroke="#51C0FF" stroke-width="10" stroke-linecap="round" stroke-linejoin="round"/>
</svg>
