<svg width="308" height="302" viewBox="0 0 308 302" fill="none" xmlns="http://www.w3.org/2000/svg">
<rect width="308" height="302" rx="15" fill="#2C1B4F"/>
<path d="M170.145 112.796C172.971 114.787 172.971 118.978 170.145 120.97L144.62 138.958C141.307 141.292 136.739 138.923 136.739 134.871V98.8949C136.739 94.8426 141.307 92.4735 144.62 94.8078L170.145 112.796Z" fill="#0D0027"/>
<g filter="url(#filter0_d)">
<path d="M172.049 117.402C173.492 118.393 173.495 120.523 172.055 121.519L145.92 139.588C144.263 140.734 142.001 139.55 141.998 137.535L141.946 101.472C141.943 99.4577 144.202 98.2672 145.862 99.4079L172.049 117.402Z" stroke="#00E7F5" stroke-width="5"/>
</g>
<g filter="url(#filter1_d)">
<path d="M165.127 113.982C166.497 114.978 166.5 117.02 165.132 118.021L139.824 136.541C138.174 137.748 135.851 136.572 135.848 134.527L135.794 97.5605C135.791 95.5156 138.111 94.3323 139.765 95.5351L165.127 113.982Z" stroke="#AD00FF" stroke-width="5"/>
</g>
<g filter="url(#filter2_d)">
<path d="M174.048 111.437C175.547 112.423 175.55 114.62 174.054 115.61L144.342 135.279C142.681 136.378 140.465 135.189 140.462 133.198L140.405 93.9459C140.402 91.9545 142.616 90.7593 144.279 91.8537L174.048 111.437Z" stroke="#F5BF00" stroke-width="5"/>
</g>
<g filter="url(#filter3_d)">
<path d="M173.719 111.719C176.698 113.693 176.705 118.065 173.731 120.048L144.199 139.736C140.879 141.95 136.431 139.573 136.425 135.583L136.369 96.2917C136.363 92.3015 140.804 89.9125 144.13 92.1163L173.719 111.719Z" fill="white" fill-opacity="0.75"/>
</g>
<g filter="url(#filter4_d)">
<path d="M60.6 163.2V162.2H59.6V163.2H60.6ZM80.35 164.5L80.7071 163.566L80.35 164.5ZM86.15 168.2L85.4429 168.907L85.4504 168.915L86.15 168.2ZM89.8 173.85L88.8648 174.204L88.8696 174.217L89.8 173.85ZM89.8 188.4L88.8695 188.033L88.8648 188.046L89.8 188.4ZM86.15 194.05L85.4504 193.335L85.4504 193.335L86.15 194.05ZM80.35 197.7L79.9929 196.766L80.35 197.7ZM60.6 199H59.6V200H60.6V199ZM77.6 191.8L77.935 192.742L77.9442 192.739L77.9534 192.735L77.6 191.8ZM81.35 189.45L80.6429 188.743L81.35 189.45ZM83.6 185.85L84.5418 186.186L84.5442 186.179L83.6 185.85ZM83.6 176.4L82.6558 176.729L82.6583 176.736L83.6 176.4ZM81.35 172.75L82.0571 172.043L81.35 172.75ZM77.6 170.45L77.2466 171.385L77.2558 171.389L77.265 171.392L77.6 170.45ZM67.35 169.6V168.6H66.35V169.6H67.35ZM67.35 192.6H66.35V193.6H67.35V192.6ZM60.6 164.2H72.7V162.2H60.6V164.2ZM72.7 164.2C75.4314 164.2 77.8576 164.618 79.9929 165.434L80.7071 163.566C78.3091 162.649 75.6353 162.2 72.7 162.2V164.2ZM79.9929 165.434C82.1379 166.254 83.9494 167.414 85.4429 168.907L86.8571 167.493C85.1506 165.786 83.0955 164.479 80.7071 163.566L79.9929 165.434ZM85.4504 168.915C86.9414 170.374 88.0803 172.133 88.8648 174.204L90.7352 173.496C89.8531 171.167 88.5586 169.159 86.8496 167.485L85.4504 168.915ZM88.8696 174.217C89.6853 176.287 90.1 178.578 90.1 181.1H92.1C92.1 178.355 91.648 175.813 90.7304 173.483L88.8696 174.217ZM90.1 181.1C90.1 183.657 89.6848 185.964 88.8696 188.033L90.7304 188.767C91.6486 186.436 92.1 183.876 92.1 181.1H90.1ZM88.8648 188.046C88.0803 190.117 86.9414 191.876 85.4504 193.335L86.8496 194.765C88.5586 193.091 89.8531 191.083 90.7352 188.754L88.8648 188.046ZM85.4504 193.335C83.9562 194.798 82.1424 195.944 79.9929 196.766L80.7071 198.634C83.091 197.723 85.1438 196.435 86.8496 194.765L85.4504 193.335ZM79.9929 196.766C77.8576 197.582 75.4314 198 72.7 198V200C75.6353 200 78.3091 199.551 80.7071 198.634L79.9929 196.766ZM72.7 198H60.6V200H72.7V198ZM61.6 199V163.2H59.6V199H61.6ZM72.4 193.6C74.455 193.6 76.3055 193.322 77.935 192.742L77.265 190.858C75.8945 191.345 74.2784 191.6 72.4 191.6V193.6ZM77.9534 192.735C79.5684 192.125 80.9441 191.27 82.0571 190.157L80.6429 188.743C79.7559 189.63 78.6316 190.341 77.2466 190.865L77.9534 192.735ZM82.0571 190.157C83.1672 189.047 83.9946 187.718 84.5417 186.186L82.6583 185.514C82.2054 186.782 81.5328 187.853 80.6429 188.743L82.0571 190.157ZM84.5442 186.179C85.086 184.626 85.35 182.93 85.35 181.1H83.35C83.35 182.737 83.114 184.207 82.6558 185.521L84.5442 186.179ZM85.35 181.1C85.35 179.271 85.0861 177.588 84.5417 176.064L82.6583 176.736C83.1139 178.012 83.35 179.463 83.35 181.1H85.35ZM84.5442 176.071C83.9983 174.506 83.1713 173.157 82.0571 172.043L80.6429 173.457C81.5287 174.343 82.2017 175.428 82.6558 176.729L84.5442 176.071ZM82.0571 172.043C80.9396 170.925 79.5573 170.085 77.935 169.508L77.265 171.392C78.6427 171.882 79.7604 172.575 80.6429 173.457L82.0571 172.043ZM77.9534 169.515C76.3181 168.897 74.4609 168.6 72.4 168.6V170.6C74.2724 170.6 75.8819 170.87 77.2466 171.385L77.9534 169.515ZM72.4 168.6H67.35V170.6H72.4V168.6ZM66.35 169.6V192.6H68.35V169.6H66.35ZM67.35 193.6H72.4V191.6H67.35V193.6ZM96.5375 163.2V162.2H95.5375V163.2H96.5375ZM103.288 163.2H104.288V162.2H103.288V163.2ZM103.288 177.5H102.288V178.5H103.288V177.5ZM118.338 177.5V178.5H119.338V177.5H118.338ZM118.338 163.2V162.2H117.338V163.2H118.338ZM125.088 163.2H126.088V162.2H125.088V163.2ZM125.088 199V200H126.088V199H125.088ZM118.338 199H117.338V200H118.338V199ZM118.338 183.9H119.338V182.9H118.338V183.9ZM103.288 183.9V182.9H102.288V183.9H103.288ZM103.288 199V200H104.288V199H103.288ZM96.5375 199H95.5375V200H96.5375V199ZM96.5375 164.2H103.288V162.2H96.5375V164.2ZM102.288 163.2V177.5H104.288V163.2H102.288ZM103.288 178.5H118.338V176.5H103.288V178.5ZM119.338 177.5V163.2H117.338V177.5H119.338ZM118.338 164.2H125.088V162.2H118.338V164.2ZM124.088 163.2V199H126.088V163.2H124.088ZM125.088 198H118.338V200H125.088V198ZM119.338 199V183.9H117.338V199H119.338ZM118.338 182.9H103.288V184.9H118.338V182.9ZM102.288 183.9V199H104.288V183.9H102.288ZM103.288 198H96.5375V200H103.288V198ZM97.5375 199V163.2H95.5375V199H97.5375ZM142.73 163.2V162.2H142.037L141.794 162.848L142.73 163.2ZM150.43 163.2L151.366 162.848L151.122 162.2H150.43V163.2ZM163.88 199V200H165.324L164.816 198.648L163.88 199ZM156.43 199L155.484 199.326L155.717 200H156.43V199ZM153.48 190.45L154.425 190.124L154.193 189.45H153.48V190.45ZM139.68 190.45V189.45H138.967L138.734 190.124L139.68 190.45ZM136.73 199V200H137.443L137.675 199.326L136.73 199ZM129.28 199L128.344 198.648L127.836 200H129.28V199ZM151.28 184.25V185.25H152.699L152.221 183.913L151.28 184.25ZM148.08 175.3L147.122 175.586L147.129 175.612L147.138 175.637L148.08 175.3ZM146.78 170.95L147.738 170.664L147.525 169.95H146.78V170.95ZM146.38 170.95V169.95H145.635L145.422 170.664L146.38 170.95ZM145.08 175.3L146.021 175.637L146.03 175.612L146.038 175.586L145.08 175.3ZM141.88 184.25L140.938 183.913L140.46 185.25H141.88V184.25ZM142.73 164.2H150.43V162.2H142.73V164.2ZM149.494 163.552L162.944 199.352L164.816 198.648L151.366 162.848L149.494 163.552ZM163.88 198H156.43V200H163.88V198ZM157.375 198.674L154.425 190.124L152.534 190.776L155.484 199.326L157.375 198.674ZM153.48 189.45H139.68V191.45H153.48V189.45ZM138.734 190.124L135.784 198.674L137.675 199.326L140.625 190.776L138.734 190.124ZM136.73 198H129.28V200H136.73V198ZM130.216 199.352L143.666 163.552L141.794 162.848L128.344 198.648L130.216 199.352ZM152.221 183.913L149.021 174.963L147.138 175.637L150.338 184.587L152.221 183.913ZM149.038 175.014L147.738 170.664L145.822 171.236L147.122 175.586L149.038 175.014ZM146.78 169.95H146.38V171.95H146.78V169.95ZM145.422 170.664L144.122 175.014L146.038 175.586L147.338 171.236L145.422 170.664ZM144.138 174.963L140.938 183.913L142.821 184.587L146.021 175.637L144.138 174.963ZM141.88 185.25H151.28V183.25H141.88V185.25ZM168.071 163.2V162.2H167.071V163.2H168.071ZM174.821 163.2H175.821V162.2H174.821V163.2ZM174.821 199V200H175.821V199H174.821ZM168.071 199H167.071V200H168.071V199ZM168.071 164.2H174.821V162.2H168.071V164.2ZM173.821 163.2V199H175.821V163.2H173.821ZM174.821 198H168.071V200H174.821V198ZM169.071 199V163.2H167.071V199H169.071ZM178.303 163.2V162.2H176.889L177.36 163.533L178.303 163.2ZM185.603 163.2L186.549 162.875L186.317 162.2H185.603V163.2ZM193.003 184.75L193.965 184.478L193.958 184.451L193.949 184.425L193.003 184.75ZM194.303 189.35L193.341 189.622L193.547 190.35H194.303V189.35ZM194.703 189.35V190.35H195.444L195.66 189.641L194.703 189.35ZM196.103 184.75L195.161 184.414L195.153 184.436L195.146 184.459L196.103 184.75ZM203.803 163.2V162.2H203.099L202.861 162.864L203.803 163.2ZM211.103 163.2L212.043 163.542L212.532 162.2H211.103V163.2ZM198.053 199V200H198.753L198.993 199.342L198.053 199ZM190.953 199L190.01 199.333L190.246 200H190.953V199ZM178.303 164.2H185.603V162.2H178.303V164.2ZM184.657 163.525L192.057 185.075L193.949 184.425L186.549 162.875L184.657 163.525ZM192.041 185.022L193.341 189.622L195.265 189.078L193.965 184.478L192.041 185.022ZM194.303 190.35H194.703V188.35H194.303V190.35ZM195.66 189.641L197.06 185.041L195.146 184.459L193.746 189.059L195.66 189.641ZM197.045 185.086L204.745 163.536L202.861 162.864L195.161 184.414L197.045 185.086ZM203.803 164.2H211.103V162.2H203.803V164.2ZM210.164 162.858L197.114 198.658L198.993 199.342L212.043 163.542L210.164 162.858ZM198.053 198H190.953V200H198.053V198ZM191.896 198.667L179.246 162.867L177.36 163.533L190.01 199.333L191.896 198.667ZM223.274 198.35L222.882 199.27L222.886 199.272L223.274 198.35ZM217.374 194.4L216.66 195.1L216.667 195.107L217.374 194.4ZM213.424 188.45L212.497 188.826L212.501 188.834L212.504 188.842L213.424 188.45ZM213.424 173.8L212.502 173.413L212.499 173.419L213.424 173.8ZM217.374 167.85L218.081 168.557L218.088 168.55L217.374 167.85ZM223.274 163.85L222.886 162.928L222.882 162.93L223.274 163.85ZM238.124 163.85L237.732 164.77L237.736 164.772L238.124 163.85ZM244.074 167.85L243.36 168.55L243.367 168.557L244.074 167.85ZM247.974 173.8L247.047 174.176L247.051 174.184L247.054 174.192L247.974 173.8ZM247.974 188.45L247.052 188.063L247.049 188.069L247.974 188.45ZM244.074 194.4L244.781 195.107L244.788 195.1L244.074 194.4ZM238.124 198.35L237.736 197.428L237.732 197.43L238.124 198.35ZM235.374 192.5L234.995 191.574L234.988 191.578L235.374 192.5ZM239.174 190L238.478 189.282L238.472 189.287L238.467 189.293L239.174 190ZM241.724 186.15L240.8 185.768L240.795 185.779L241.724 186.15ZM241.724 176.1L240.793 176.464L240.797 176.477L240.803 176.489L241.724 176.1ZM239.174 172.2L238.467 172.907L238.472 172.913L238.478 172.918L239.174 172.2ZM235.374 169.7L234.988 170.622L234.995 170.626L235.374 169.7ZM226.024 169.7L225.645 168.774L225.638 168.778L226.024 169.7ZM222.224 172.2L221.528 171.482L221.522 171.487L221.517 171.493L222.224 172.2ZM219.674 176.1L218.75 175.718L218.745 175.729L219.674 176.1ZM219.674 186.15L218.743 186.514L218.747 186.527L218.753 186.539L219.674 186.15ZM222.224 190L221.517 190.707L221.522 190.713L221.528 190.718L222.224 190ZM226.024 192.5L225.638 193.422L225.645 193.426L226.024 192.5ZM230.724 198.8C228.181 198.8 225.83 198.34 223.661 197.428L222.886 199.272C225.317 200.294 227.933 200.8 230.724 200.8V198.8ZM223.666 197.43C221.512 196.511 219.653 195.265 218.081 193.693L216.667 195.107C218.428 196.868 220.503 198.255 222.882 199.27L223.666 197.43ZM218.088 193.7C216.511 192.092 215.263 190.214 214.344 188.058L212.504 188.842C213.518 191.219 214.903 193.308 216.66 195.1L218.088 193.7ZM214.35 188.074C213.468 185.899 213.024 183.577 213.024 181.1H211.024C211.024 183.823 211.513 186.401 212.497 188.826L214.35 188.074ZM213.024 181.1C213.024 178.623 213.468 176.319 214.349 174.181L212.499 173.419C211.513 175.814 211.024 178.377 211.024 181.1H213.024ZM214.346 174.187C215.265 172 216.511 170.127 218.081 168.557L216.667 167.143C214.903 168.906 213.516 171 212.502 173.413L214.346 174.187ZM218.088 168.55C219.66 166.947 221.516 165.687 223.666 164.77L222.882 162.93C220.499 163.946 218.421 165.353 216.66 167.15L218.088 168.55ZM223.661 164.772C225.83 163.86 228.181 163.4 230.724 163.4V161.4C227.933 161.4 225.317 161.906 222.886 162.928L223.661 164.772ZM230.724 163.4C233.267 163.4 235.599 163.86 237.732 164.77L238.516 162.93C236.116 161.906 233.514 161.4 230.724 161.4V163.4ZM237.736 164.772C239.92 165.69 241.791 166.95 243.36 168.55L244.788 167.15C243.024 165.35 240.928 163.944 238.511 162.928L237.736 164.772ZM243.367 168.557C244.934 170.124 246.161 171.993 247.047 174.176L248.9 173.424C247.92 171.007 246.547 168.909 244.781 167.143L243.367 168.557ZM247.054 174.192C247.965 176.328 248.424 178.627 248.424 181.1H250.424C250.424 178.373 249.916 175.805 248.894 173.408L247.054 174.192ZM248.424 181.1C248.424 183.573 247.965 185.89 247.052 188.063L248.896 188.837C249.916 186.41 250.424 183.827 250.424 181.1H248.424ZM247.049 188.069C246.163 190.221 244.934 192.095 243.36 193.7L244.788 195.1C246.547 193.305 247.918 191.213 248.899 188.831L247.049 188.069ZM243.367 193.693C241.797 195.263 239.924 196.509 237.736 197.428L238.511 199.272C240.924 198.258 243.017 196.871 244.781 195.107L243.367 193.693ZM237.732 197.43C235.599 198.34 233.267 198.8 230.724 198.8V200.8C233.514 200.8 236.116 200.294 238.516 199.27L237.732 197.43ZM230.724 194.4C232.513 194.4 234.196 194.077 235.76 193.422L234.988 191.578C233.685 192.123 232.268 192.4 230.724 192.4V194.4ZM235.752 193.426C237.336 192.778 238.716 191.872 239.881 190.707L238.467 189.293C237.499 190.261 236.345 191.022 234.995 191.574L235.752 193.426ZM239.87 190.718C241.076 189.548 242.003 188.145 242.652 186.521L240.795 185.779C240.245 187.155 239.471 188.319 238.478 189.282L239.87 190.718ZM242.648 186.532C243.336 184.865 243.674 183.051 243.674 181.1H241.674C241.674 182.816 241.378 184.368 240.8 185.768L242.648 186.532ZM243.674 181.1C243.674 179.15 243.337 177.349 242.645 175.711L240.803 176.489C241.378 177.851 241.674 179.383 241.674 181.1H243.674ZM242.655 175.736C242.007 174.079 241.08 172.656 239.87 171.482L238.478 172.918C239.467 173.878 240.241 175.054 240.793 176.464L242.655 175.736ZM239.881 171.493C238.716 170.328 237.336 169.422 235.752 168.774L234.995 170.626C236.345 171.178 237.499 171.939 238.467 172.907L239.881 171.493ZM235.76 168.778C234.196 168.123 232.513 167.8 230.724 167.8V169.8C232.268 169.8 233.685 170.077 234.988 170.622L235.76 168.778ZM230.724 167.8C228.934 167.8 227.238 168.123 225.645 168.774L226.402 170.626C227.743 170.077 229.18 169.8 230.724 169.8V167.8ZM225.638 168.778C224.091 169.425 222.719 170.327 221.528 171.482L222.92 172.918C223.929 171.939 225.09 171.175 226.41 170.622L225.638 168.778ZM221.517 171.493C220.348 172.662 219.428 174.075 218.75 175.718L220.598 176.482C221.186 175.058 221.966 173.872 222.931 172.907L221.517 171.493ZM218.745 175.729C218.092 177.362 217.774 179.156 217.774 181.1H219.774C219.774 179.377 220.055 177.838 220.602 176.471L218.745 175.729ZM217.774 181.1C217.774 183.044 218.092 184.852 218.743 186.514L220.605 185.786C220.055 184.381 219.774 182.823 219.774 181.1H217.774ZM218.753 186.539C219.432 188.148 220.352 189.542 221.517 190.707L222.931 189.293C221.963 188.324 221.182 187.152 220.595 185.761L218.753 186.539ZM221.528 190.718C222.719 191.873 224.091 192.775 225.638 193.422L226.41 191.578C225.09 191.025 223.929 190.261 222.92 189.282L221.528 190.718ZM225.645 193.426C227.238 194.077 228.934 194.4 230.724 194.4V192.4C229.18 192.4 227.743 192.123 226.402 191.574L225.645 193.426Z" fill="#1FC4C8"/>
</g>
<path d="M61.6 165.2V159.2H55.6V165.2H61.6ZM81.35 166.5L83.4928 160.896L83.4928 160.896L81.35 166.5ZM87.15 170.2L82.9074 174.443L82.9297 174.465L82.9523 174.487L87.15 170.2ZM90.8 175.85L85.189 177.975L85.2031 178.012L85.2176 178.049L90.8 175.85ZM90.8 190.4L85.2176 188.201L85.2031 188.238L85.189 188.275L90.8 190.4ZM87.15 196.05L82.9523 191.763L82.9522 191.763L87.15 196.05ZM81.35 199.7L79.2072 194.096H79.2072L81.35 199.7ZM61.6 201H55.6V207H61.6V201ZM78.6 193.8L80.6101 199.453L80.6654 199.434L80.7204 199.413L78.6 193.8ZM82.35 191.45L78.1074 187.207L82.35 191.45ZM84.6 187.85L90.2505 189.868L90.2579 189.847L90.2652 189.826L84.6 187.85ZM84.6 178.4L78.9348 180.376L78.9421 180.397L78.9496 180.418L84.6 178.4ZM82.35 174.75L86.5926 170.507L86.5926 170.507L82.35 174.75ZM78.6 172.45L76.4796 178.063L76.5346 178.084L76.5899 178.103L78.6 172.45ZM68.35 171.6V165.6H62.35V171.6H68.35ZM68.35 194.6H62.35V200.6H68.35V194.6ZM61.6 171.2H73.7V159.2H61.6V171.2ZM73.7 171.2C75.9215 171.2 77.7289 171.539 79.2072 172.104L83.4928 160.896C80.4378 159.728 77.1452 159.2 73.7 159.2V171.2ZM79.2072 172.104C80.7439 172.692 81.9462 173.481 82.9074 174.443L91.3926 165.957C89.1538 163.719 86.4894 162.041 83.4928 160.896L79.2072 172.104ZM82.9523 174.487C83.8984 175.414 84.6483 176.548 85.189 177.975L96.411 173.725C95.285 170.752 93.6016 168.12 91.3477 165.913L82.9523 174.487ZM85.2176 178.049C85.7787 179.474 86.1 181.134 86.1 183.1H98.1C98.1 179.799 97.5547 176.626 96.3825 173.651L85.2176 178.049ZM86.1 183.1C86.1 185.11 85.7753 186.785 85.2176 188.201L96.3825 192.599C97.558 189.615 98.1 186.424 98.1 183.1H86.1ZM85.189 188.275C84.6483 189.702 83.8984 190.836 82.9523 191.763L91.3477 200.337C93.6016 198.13 95.285 195.498 96.411 192.525L85.189 188.275ZM82.9522 191.763C81.9875 192.708 80.7708 193.498 79.2072 194.096L83.4928 205.304C86.4625 204.169 89.1125 202.526 91.3478 200.337L82.9522 191.763ZM79.2072 194.096C77.7289 194.661 75.9215 195 73.7 195V207C77.1452 207 80.4378 206.472 83.4928 205.304L79.2072 194.096ZM73.7 195H61.6V207H73.7V195ZM67.6 201V165.2H55.6V201H67.6ZM73.4 200.6C75.8964 200.6 78.3332 200.263 80.6101 199.453L76.5899 188.147C75.8668 188.404 74.8369 188.6 73.4 188.6V200.6ZM80.7204 199.413C82.9104 198.585 84.9148 197.37 86.5926 195.693L78.1074 187.207C77.7852 187.53 77.2896 187.881 76.4796 188.187L80.7204 199.413ZM86.5926 195.693C88.2529 194.032 89.4673 192.061 90.2505 189.868L78.9495 185.832C78.7327 186.439 78.4471 186.868 78.1074 187.207L86.5926 195.693ZM90.2652 189.826C91.0158 187.674 91.35 185.412 91.35 183.1H79.35C79.35 184.255 79.1842 185.159 78.9348 185.874L90.2652 189.826ZM91.35 183.1C91.35 180.791 91.0166 178.527 90.2505 176.382L78.9496 180.418C79.1834 181.073 79.35 181.943 79.35 183.1H91.35ZM90.2652 176.424C89.49 174.201 88.2776 172.192 86.5926 170.507L78.1074 178.993C78.4224 179.308 78.7101 179.732 78.9348 180.376L90.2652 176.424ZM86.5926 170.507C84.8874 168.802 82.8437 167.591 80.6101 166.797L76.5899 178.103C77.3563 178.376 77.8126 178.698 78.1074 178.993L86.5926 170.507ZM80.7204 166.837C78.4087 165.964 75.9323 165.6 73.4 165.6V177.6C74.801 177.6 75.7913 177.803 76.4796 178.063L80.7204 166.837ZM73.4 165.6H68.35V177.6H73.4V165.6ZM62.35 171.6V194.6H74.35V171.6H62.35ZM68.35 200.6H73.4V188.6H68.35V200.6ZM97.5375 165.2V159.2H91.5375V165.2H97.5375ZM104.288 165.2H110.288V159.2H104.288V165.2ZM104.288 179.5H98.2875V185.5H104.288V179.5ZM119.338 179.5V185.5H125.338V179.5H119.338ZM119.338 165.2V159.2H113.338V165.2H119.338ZM126.088 165.2H132.088V159.2H126.088V165.2ZM126.088 201V207H132.088V201H126.088ZM119.338 201H113.338V207H119.338V201ZM119.338 185.9H125.338V179.9H119.338V185.9ZM104.288 185.9V179.9H98.2875V185.9H104.288ZM104.288 201V207H110.288V201H104.288ZM97.5375 201H91.5375V207H97.5375V201ZM97.5375 171.2H104.288V159.2H97.5375V171.2ZM98.2875 165.2V179.5H110.288V165.2H98.2875ZM104.288 185.5H119.338V173.5H104.288V185.5ZM125.338 179.5V165.2H113.338V179.5H125.338ZM119.338 171.2H126.088V159.2H119.338V171.2ZM120.088 165.2V201H132.088V165.2H120.088ZM126.088 195H119.338V207H126.088V195ZM125.338 201V185.9H113.338V201H125.338ZM119.338 179.9H104.288V191.9H119.338V179.9ZM98.2875 185.9V201H110.288V185.9H98.2875ZM104.288 195H97.5375V207H104.288V195ZM103.537 201V165.2H91.5375V201H103.537ZM143.73 165.2V159.2H139.574L138.113 163.09L143.73 165.2ZM151.43 165.2L157.046 163.09L155.585 159.2H151.43V165.2ZM164.88 201V207H173.543L170.496 198.89L164.88 201ZM157.43 201L151.758 202.957L153.153 207H157.43V201ZM154.48 192.45L160.152 190.493L158.757 186.45H154.48V192.45ZM140.68 192.45V186.45H136.403L135.008 190.493L140.68 192.45ZM137.73 201V207H142.007L143.402 202.957L137.73 201ZM130.28 201L124.663 198.89L121.616 207H130.28V201ZM152.28 186.25V192.25H160.797L157.929 184.23L152.28 186.25ZM149.08 177.3L143.331 179.018L143.376 179.17L143.43 179.32L149.08 177.3ZM147.78 172.95L153.528 171.232L152.249 166.95H147.78V172.95ZM147.38 172.95V166.95H142.911L141.631 171.232L147.38 172.95ZM146.08 177.3L151.729 179.32L151.783 179.17L151.828 179.018L146.08 177.3ZM142.88 186.25L137.23 184.23L134.362 192.25H142.88V186.25ZM143.73 171.2H151.43V159.2H143.73V171.2ZM145.813 167.31L159.263 203.11L170.496 198.89L157.046 163.09L145.813 167.31ZM164.88 195H157.43V207H164.88V195ZM163.102 199.043L160.152 190.493L148.808 194.407L151.758 202.957L163.102 199.043ZM154.48 186.45H140.68V198.45H154.48V186.45ZM135.008 190.493L132.058 199.043L143.402 202.957L146.352 194.407L135.008 190.493ZM137.73 195H130.28V207H137.73V195ZM135.896 203.11L149.346 167.31L138.113 163.09L124.663 198.89L135.896 203.11ZM157.929 184.23L154.729 175.28L143.43 179.32L146.63 188.27L157.929 184.23ZM154.828 175.582L153.528 171.232L142.031 174.668L143.331 179.018L154.828 175.582ZM147.78 166.95H147.38V178.95H147.78V166.95ZM141.631 171.232L140.331 175.582L151.828 179.018L153.128 174.668L141.631 171.232ZM140.43 175.28L137.23 184.23L148.529 188.27L151.729 179.32L140.43 175.28ZM142.88 192.25H152.28V180.25H142.88V192.25ZM169.071 165.2V159.2H163.071V165.2H169.071ZM175.821 165.2H181.821V159.2H175.821V165.2ZM175.821 201V207H181.821V201H175.821ZM169.071 201H163.071V207H169.071V201ZM169.071 171.2H175.821V159.2H169.071V171.2ZM169.821 165.2V201H181.821V165.2H169.821ZM175.821 195H169.071V207H175.821V195ZM175.071 201V165.2H163.071V201H175.071ZM179.303 165.2V159.2H170.819L173.646 167.199L179.303 165.2ZM186.603 165.2L192.278 163.251L190.887 159.2H186.603V165.2ZM194.003 186.75L199.777 185.118L199.732 184.958L199.678 184.801L194.003 186.75ZM195.303 191.35L189.529 192.982L190.764 197.35H195.303V191.35ZM195.703 191.35V197.35H200.149L201.443 193.097L195.703 191.35ZM197.103 186.75L191.453 184.731L191.405 184.866L191.363 185.003L197.103 186.75ZM204.803 165.2V159.2H200.575L199.153 163.181L204.803 165.2ZM212.103 165.2L217.74 167.255L220.676 159.2H212.103V165.2ZM199.053 201V207H203.252L204.69 203.055L199.053 201ZM191.953 201L186.296 202.999L187.71 207H191.953V201ZM179.303 171.2H186.603V159.2H179.303V171.2ZM180.928 167.149L188.328 188.699L199.678 184.801L192.278 163.251L180.928 167.149ZM188.229 188.382L189.529 192.982L201.077 189.718L199.777 185.118L188.229 188.382ZM195.303 197.35H195.703V185.35H195.303V197.35ZM201.443 193.097L202.843 188.497L191.363 185.003L189.963 189.603L201.443 193.097ZM202.753 188.769L210.453 167.219L199.153 163.181L191.453 184.731L202.753 188.769ZM204.803 171.2H212.103V159.2H204.803V171.2ZM206.466 163.145L193.416 198.945L204.69 203.055L217.74 167.255L206.466 163.145ZM199.053 195H191.953V207H199.053V195ZM197.61 199.001L184.96 163.201L173.646 167.199L186.296 202.999L197.61 199.001ZM224.274 200.35L221.92 205.869L221.935 205.875L221.949 205.881L224.274 200.35ZM218.374 196.4L214.089 200.6L214.11 200.622L214.131 200.643L218.374 196.4ZM214.424 190.45L208.864 192.706L208.884 192.755L208.905 192.804L214.424 190.45ZM214.424 175.8L208.893 173.475L208.884 173.495L208.876 173.516L214.424 175.8ZM218.374 169.85L222.616 174.093L222.637 174.072L222.658 174.05L218.374 169.85ZM224.274 165.85L221.949 160.319L221.935 160.325L221.92 160.331L224.274 165.85ZM239.124 165.85L236.77 171.369L236.785 171.375L236.799 171.381L239.124 165.85ZM245.074 169.85L240.789 174.05L240.81 174.072L240.831 174.093L245.074 169.85ZM248.974 175.8L243.414 178.056L243.434 178.105L243.455 178.154L248.974 175.8ZM248.974 190.45L243.443 188.125L243.434 188.145L243.426 188.166L248.974 190.45ZM245.074 196.4L249.316 200.643L249.337 200.622L249.358 200.6L245.074 196.4ZM239.124 200.35L236.799 194.819L236.785 194.825L236.77 194.831L239.124 200.35ZM236.374 194.5L234.102 188.947L234.079 188.956L234.057 188.965L236.374 194.5ZM240.174 192L235.997 187.693L235.964 187.725L235.931 187.757L240.174 192ZM242.724 188.15L237.178 185.859L237.165 185.89L237.153 185.922L242.724 188.15ZM242.724 178.1L237.136 180.286L237.165 180.361L237.196 180.434L242.724 178.1ZM240.174 174.2L235.931 178.443L235.964 178.475L235.997 178.507L240.174 174.2ZM236.374 171.7L234.057 177.235L234.079 177.244L234.102 177.253L236.374 171.7ZM227.024 171.7L224.752 166.147L224.729 166.156L224.707 166.165L227.024 171.7ZM223.224 174.2L219.047 169.893L219.014 169.925L218.981 169.957L223.224 174.2ZM220.674 178.1L215.128 175.809L215.115 175.84L215.103 175.872L220.674 178.1ZM220.674 188.15L215.086 190.336L215.115 190.411L215.146 190.484L220.674 188.15ZM223.224 192L218.981 196.243L219.014 196.275L219.047 196.307L223.224 192ZM227.024 194.5L224.707 200.035L224.729 200.044L224.752 200.053L227.024 194.5ZM231.724 195.8C229.8 195.8 228.113 195.455 226.599 194.819L221.949 205.881C225.035 207.178 228.314 207.8 231.724 207.8V195.8ZM226.628 194.831C225.034 194.151 223.716 193.257 222.616 192.157L214.131 200.643C216.365 202.876 218.981 204.615 221.92 205.869L226.628 194.831ZM222.658 192.2C221.533 191.052 220.627 189.7 219.943 188.096L208.905 192.804C210.154 195.733 211.881 198.348 214.089 200.6L222.658 192.2ZM219.984 188.194C219.355 186.644 219.024 184.964 219.024 183.1H207.024C207.024 186.436 207.626 189.656 208.864 192.706L219.984 188.194ZM219.024 183.1C219.024 181.236 219.355 179.583 219.972 178.084L208.876 173.516C207.626 176.55 207.024 179.764 207.024 183.1H219.024ZM219.955 178.125C220.638 176.499 221.531 175.178 222.616 174.093L214.131 165.607C211.883 167.855 210.143 170.501 208.893 173.475L219.955 178.125ZM222.658 174.05C223.755 172.932 225.059 172.038 226.628 171.369L221.92 160.331C218.956 161.595 216.326 163.368 214.089 165.65L222.658 174.05ZM226.599 171.381C228.113 170.745 229.8 170.4 231.724 170.4V158.4C228.314 158.4 225.035 159.022 221.949 160.319L226.599 171.381ZM231.724 170.4C233.649 170.4 235.307 170.745 236.77 171.369L241.478 160.331C238.407 159.022 235.132 158.4 231.724 158.4V170.4ZM236.799 171.381C238.4 172.054 239.708 172.947 240.789 174.05L249.358 165.65C247.107 163.353 244.448 161.579 241.449 160.319L236.799 171.381ZM240.831 174.093C241.901 175.162 242.766 176.46 243.414 178.056L254.534 173.544C253.315 170.54 251.58 167.871 249.316 165.607L240.831 174.093ZM243.455 178.154C244.087 179.636 244.424 181.264 244.424 183.1H256.424C256.424 179.736 255.794 176.498 254.493 173.446L243.455 178.154ZM244.424 183.1C244.424 184.936 244.087 186.592 243.443 188.125L254.505 192.775C255.794 189.708 256.424 186.464 256.424 183.1H244.424ZM243.426 188.166C242.778 189.74 241.899 191.067 240.789 192.2L249.358 200.6C251.582 198.333 253.303 195.694 254.522 192.734L243.426 188.166ZM240.831 192.157C239.746 193.243 238.425 194.135 236.799 194.819L241.449 205.881C244.423 204.631 247.068 202.891 249.316 200.643L240.831 192.157ZM236.77 194.831C235.307 195.455 233.649 195.8 231.724 195.8V207.8C235.132 207.8 238.407 207.178 241.478 205.869L236.77 194.831ZM231.724 201.4C234.128 201.4 236.471 200.964 238.691 200.035L234.057 188.965C233.409 189.236 232.653 189.4 231.724 189.4V201.4ZM238.646 200.053C240.812 199.167 242.758 197.901 244.416 196.243L235.931 187.757C235.456 188.232 234.869 188.633 234.102 188.947L238.646 200.053ZM244.351 196.307C246.089 194.622 247.399 192.618 248.295 190.378L237.153 185.922C236.849 186.682 236.459 187.245 235.997 187.693L244.351 196.307ZM248.269 190.441C249.233 188.108 249.674 185.636 249.674 183.1H237.674C237.674 184.23 237.481 185.125 237.178 185.859L248.269 190.441ZM249.674 183.1C249.674 180.566 249.233 178.092 248.251 175.766L237.196 180.434C237.481 181.108 237.674 181.968 237.674 183.1H249.674ZM248.311 175.914C247.422 173.641 246.112 171.601 244.351 169.893L235.997 178.507C236.435 178.932 236.826 179.492 237.136 180.286L248.311 175.914ZM244.416 169.957C242.758 168.299 240.812 167.033 238.646 166.147L234.102 177.253C234.869 177.567 235.456 177.968 235.931 178.443L244.416 169.957ZM238.691 166.165C236.471 165.236 234.128 164.8 231.724 164.8V176.8C232.653 176.8 233.409 176.964 234.057 177.235L238.691 166.165ZM231.724 164.8C229.319 164.8 226.977 165.237 224.752 166.147L229.296 177.253C230.004 176.963 230.795 176.8 231.724 176.8V164.8ZM224.707 166.165C222.592 167.051 220.693 168.297 219.047 169.893L227.401 178.507C227.955 177.97 228.589 177.549 229.341 177.235L224.707 166.165ZM218.981 169.957C217.303 171.636 216.033 173.619 215.128 175.809L226.219 180.391C226.581 179.514 227.012 178.897 227.466 178.443L218.981 169.957ZM215.103 175.872C214.184 178.169 213.774 180.606 213.774 183.1H225.774C225.774 181.928 225.964 181.031 226.245 180.328L215.103 175.872ZM213.774 183.1C213.774 185.597 214.185 188.032 215.086 190.336L226.261 185.964C225.963 185.202 225.774 184.27 225.774 183.1H213.774ZM215.146 190.484C216.057 192.64 217.325 194.586 218.981 196.243L227.466 187.757C226.989 187.28 226.558 186.66 226.201 185.816L215.146 190.484ZM219.047 196.307C220.693 197.903 222.592 199.149 224.707 200.035L229.341 188.965C228.589 188.651 227.955 188.23 227.401 187.693L219.047 196.307ZM224.752 200.053C226.977 200.963 229.319 201.4 231.724 201.4V189.4C230.795 189.4 230.004 189.237 229.296 188.947L224.752 200.053Z" fill="white"/>
<defs>
<filter id="filter0_d" x="129.439" y="90.4148" width="56.2278" height="66.1327" filterUnits="userSpaceOnUse" color-interpolation-filters="sRGB">
<feFlood flood-opacity="0" result="BackgroundImageFix"/>
<feColorMatrix in="SourceAlpha" type="matrix" values="0 0 0 0 0 0 0 0 0 0 0 0 0 0 0 0 0 0 127 0"/>
<feOffset dy="4"/>
<feGaussianBlur stdDeviation="5"/>
<feColorMatrix type="matrix" values="0 0 0 0 1 0 0 0 0 1 0 0 0 0 1 0 0 0 1 0"/>
<feBlend mode="normal" in2="BackgroundImageFix" result="effect1_dropShadow"/>
<feBlend mode="normal" in="SourceGraphic" in2="effect1_dropShadow" result="shape"/>
</filter>
<filter id="filter1_d" x="123.287" y="86.5042" width="55.4028" height="67.0351" filterUnits="userSpaceOnUse" color-interpolation-filters="sRGB">
<feFlood flood-opacity="0" result="BackgroundImageFix"/>
<feColorMatrix in="SourceAlpha" type="matrix" values="0 0 0 0 0 0 0 0 0 0 0 0 0 0 0 0 0 0 127 0"/>
<feOffset dy="4"/>
<feGaussianBlur stdDeviation="5"/>
<feColorMatrix type="matrix" values="0 0 0 0 1 0 0 0 0 1 0 0 0 0 1 0 0 0 1 0"/>
<feBlend mode="normal" in2="BackgroundImageFix" result="effect1_dropShadow"/>
<feBlend mode="normal" in="SourceGraphic" in2="effect1_dropShadow" result="shape"/>
</filter>
<filter id="filter2_d" x="127.898" y="77.8838" width="59.8114" height="69.3257" filterUnits="userSpaceOnUse" color-interpolation-filters="sRGB">
<feFlood flood-opacity="0" result="BackgroundImageFix"/>
<feColorMatrix in="SourceAlpha" type="matrix" values="0 0 0 0 0 0 0 0 0 0 0 0 0 0 0 0 0 0 127 0"/>
<feOffset dy="-1"/>
<feGaussianBlur stdDeviation="5"/>
<feColorMatrix type="matrix" values="0 0 0 0 1 0 0 0 0 1 0 0 0 0 1 0 0 0 1 0"/>
<feBlend mode="normal" in2="BackgroundImageFix" result="effect1_dropShadow"/>
<feBlend mode="normal" in="SourceGraphic" in2="effect1_dropShadow" result="shape"/>
</filter>
<filter id="filter3_d" x="132.361" y="87.2263" width="47.6316" height="57.3653" filterUnits="userSpaceOnUse" color-interpolation-filters="sRGB">
<feFlood flood-opacity="0" result="BackgroundImageFix"/>
<feColorMatrix in="SourceAlpha" type="matrix" values="0 0 0 0 0 0 0 0 0 0 0 0 0 0 0 0 0 0 127 0"/>
<feOffset/>
<feGaussianBlur stdDeviation="2"/>
<feColorMatrix type="matrix" values="0 0 0 0 1 0 0 0 0 1 0 0 0 0 1 0 0 0 1 0"/>
<feBlend mode="normal" in2="BackgroundImageFix" result="effect1_dropShadow"/>
<feBlend mode="normal" in="SourceGraphic" in2="effect1_dropShadow" result="shape"/>
</filter>
<filter id="filter4_d" x="44.6" y="146.4" width="220.824" height="69.4" filterUnits="userSpaceOnUse" color-interpolation-filters="sRGB">
<feFlood flood-opacity="0" result="BackgroundImageFix"/>
<feColorMatrix in="SourceAlpha" type="matrix" values="0 0 0 0 0 0 0 0 0 0 0 0 0 0 0 0 0 0 127 0"/>
<feOffset/>
<feGaussianBlur stdDeviation="7.5"/>
<feColorMatrix type="matrix" values="0 0 0 0 1 0 0 0 0 1 0 0 0 0 1 0 0 0 0.6 0"/>
<feBlend mode="normal" in2="BackgroundImageFix" result="effect1_dropShadow"/>
<feBlend mode="normal" in="SourceGraphic" in2="effect1_dropShadow" result="shape"/>
</filter>
</defs>
</svg>
